<svg width="148" height="62" viewBox="0 0 148 62" fill="none" xmlns="http://www.w3.org/2000/svg">
<path d="M45.4067 17.533H56.2006V20.1228H48.6501V25.3024H54.5919V27.8145H48.6501V34.9365H45.4067V17.533Z" fill="#53C07D"/>
<path d="M56.8492 28.695V28.4878C56.8492 24.5513 59.6515 21.9097 63.4138 21.9097C67.1501 21.9097 69.9523 24.5254 69.9523 28.4101V28.6173C69.9523 32.5797 67.1501 35.1695 63.3878 35.1695C59.6255 35.1695 56.8492 32.5797 56.8492 28.695ZM66.9166 28.6691V28.4878C66.9166 25.8462 65.5933 24.2405 63.4138 24.2405C61.2083 24.2405 59.885 25.8203 59.885 28.4619V28.6691C59.885 31.2848 61.1823 32.9164 63.4138 32.9164C65.6192 32.8905 66.9166 31.2589 66.9166 28.6691Z" fill="#53C07D"/>
<path d="M72.0021 30.3525V22.1946H74.96V30.0158C74.96 31.9323 75.7643 32.8128 77.4768 32.8128C79.0596 32.8128 80.4607 31.8028 80.4607 29.7827V22.1946H83.4186V34.9364H80.4348V32.9423C79.812 34.1854 78.4628 35.1695 76.3871 35.1695C73.8702 35.1695 72.0021 33.7451 72.0021 30.3525Z" fill="#53C07D"/>
<path d="M86.3766 22.1948H89.3345V24.2148C89.9572 22.9717 91.3584 21.9358 93.4601 21.9358C96.0288 21.9358 97.8191 23.412 97.8191 26.9341V34.9366H94.8612V27.1931C94.8612 25.2766 94.0828 24.3961 92.3184 24.3961C90.6578 24.3961 89.3086 25.4061 89.3086 27.4262V34.9107H86.3506V22.1948H86.3766Z" fill="#53C07D"/>
<path d="M99.8948 28.7729V28.5657C99.8948 24.4997 102.308 21.9099 105.629 21.9099C107.705 21.9099 109.002 22.8681 109.703 24.1371V16.3159H112.661V34.9366H109.703V32.7871C109.028 34.0561 107.393 35.1697 105.499 35.1697C102.308 35.1697 99.8948 32.9166 99.8948 28.7729ZM109.806 28.6434V28.4362C109.806 25.6392 108.509 24.2407 106.356 24.2407C104.176 24.2407 102.905 25.7428 102.905 28.488V28.6952C102.905 31.4922 104.332 32.8389 106.226 32.8389C108.302 32.8389 109.806 31.4922 109.806 28.6434Z" fill="#53C07D"/>
<path d="M114.814 28.695V28.4878C114.814 24.5513 117.513 21.9097 121.145 21.9097C124.311 21.9097 127.165 23.7743 127.165 28.3324V29.187H117.824C117.928 31.5956 119.147 32.9682 121.327 32.9682C123.117 32.9682 124.025 32.2689 124.259 31.0258H127.113C126.698 33.6933 124.518 35.1695 121.249 35.1695C117.539 35.1695 114.814 32.7092 114.814 28.695ZM124.259 27.2447C124.129 25.0433 122.987 24.0851 121.171 24.0851C119.381 24.0851 118.187 25.2764 117.902 27.2447H124.259Z" fill="#53C07D"/>
<path d="M129.344 22.1947H132.302V24.6032C133.107 22.9976 134.3 22.0393 136.454 22.0134V24.7586C133.859 24.7845 132.302 25.6133 132.302 28.3067V34.9366H129.344V22.1947Z" fill="#53C07D"/>
<path d="M137.543 30.9742H140.32C140.475 32.2691 141.124 33.0202 142.863 33.0202C144.445 33.0202 145.146 32.4504 145.146 31.3886C145.146 30.3527 144.29 29.9642 142.421 29.6275C139.048 29.0837 137.803 28.1513 137.803 25.7687C137.803 23.2048 140.19 21.9358 142.577 21.9358C145.198 21.9358 147.248 22.9199 147.585 25.7687H144.86C144.627 24.6033 143.952 24.0594 142.603 24.0594C141.332 24.0594 140.579 24.6551 140.579 25.5615C140.579 26.4939 141.176 26.8564 143.2 27.1931C146.21 27.6593 147.974 28.3844 147.974 31.0778C147.974 33.6676 146.132 35.1438 142.888 35.1438C139.593 35.1697 137.673 33.6676 137.543 30.9742Z" fill="#53C07D"/>
<path d="M45.4067 39.9348H51.0112C54.9032 39.9348 57.472 41.67 57.472 45.3216V45.4252C57.472 49.1027 54.8254 50.7343 51.0891 50.7343H48.6501V57.3642H45.4067V39.9348ZM51.0372 48.3776C53.1908 48.3776 54.3324 47.3417 54.3324 45.3993V45.3216C54.3324 43.2498 53.1129 42.4469 51.0372 42.4469H48.676V48.3776H51.0372Z" fill="#53C07D"/>
<path d="M59.5995 38.7175H62.5575V57.3382H59.5995V38.7175Z" fill="#53C07D"/>
<path d="M64.8149 51.0968V50.8896C64.8149 46.9531 67.5133 44.3115 71.1459 44.3115C74.3114 44.3115 77.1655 46.1762 77.1655 50.7342V51.5889H67.8247C67.9285 53.9974 69.148 55.37 71.3275 55.37C73.1178 55.37 74.026 54.6707 74.2595 53.4276H77.1136C76.6985 56.0951 74.519 57.5713 71.2497 57.5713C67.5133 57.5713 64.8149 55.111 64.8149 51.0968ZM74.2335 49.6465C74.0779 47.4452 72.9622 46.487 71.1459 46.487C69.3556 46.487 68.162 47.6783 67.8766 49.6465H74.2335Z" fill="#53C07D"/>
<path d="M78.4888 51.1745V50.9674C78.4888 46.9014 80.9018 44.3115 84.223 44.3115C86.2987 44.3115 87.5961 45.2698 88.2966 46.5388V38.6917H91.2545V57.3124H88.2966V55.1628C87.622 56.4319 85.9874 57.5455 84.0933 57.5455C80.9018 57.5714 78.4888 55.3182 78.4888 51.1745ZM88.4004 51.045V50.8379C88.4004 48.0409 87.1031 46.6424 84.9495 46.6424C82.77 46.6424 81.4986 48.1445 81.4986 50.8897V51.0968C81.4986 53.8938 82.9257 55.2405 84.8198 55.2405C86.8696 55.2405 88.4004 53.8679 88.4004 51.045Z" fill="#53C07D"/>
<path d="M93.5638 57.7785H96.5217C96.7552 59.0475 97.7412 59.7727 99.6613 59.7727C101.945 59.7727 103.216 58.6332 103.216 56.3282V54.4636C102.515 55.6808 100.933 56.8203 99.0385 56.8203C95.8471 56.8203 93.3821 54.4377 93.3821 50.7601V50.5789C93.3821 47.0049 95.8211 44.3115 99.1164 44.3115C101.218 44.3115 102.489 45.2697 103.216 46.5388V44.5964H106.174V56.38C106.148 60.1352 103.631 61.9999 99.6872 61.9999C95.6914 61.9999 93.9011 60.2129 93.5638 57.7785ZM103.346 50.6566V50.5012C103.346 48.0926 102.022 46.6424 99.8948 46.6424C97.6893 46.6424 96.4439 48.2221 96.4439 50.5271V50.7342C96.4439 53.091 97.8969 54.5672 99.8169 54.5672C101.841 54.5672 103.346 53.091 103.346 50.6566Z" fill="#53C07D"/>
<path d="M108.353 51.0968V50.8896C108.353 46.9531 111.052 44.3115 114.684 44.3115C117.85 44.3115 120.704 46.1762 120.704 50.7342V51.5889H111.363C111.467 53.9974 112.687 55.37 114.866 55.37C116.656 55.37 117.565 54.6707 117.798 53.4276H120.652C120.237 56.0951 118.058 57.5713 114.788 57.5713C111.078 57.5713 108.353 55.111 108.353 51.0968ZM117.798 49.6465C117.642 47.4452 116.527 46.487 114.71 46.487C112.92 46.487 111.727 47.6783 111.441 49.6465H117.798Z" fill="#53C07D"/>
<path d="M8.17321 17.4812L0 22.1946V29.0058L10.3268 23.0493V11.9131L0 5.95654V12.7677L8.17321 17.4812Z" fill="#53C07D"/>
<path d="M16.2427 22.1429L24.4159 26.8304L30.3058 23.4378L19.979 17.4812L10.3528 23.0493V34.9365L16.2427 31.5439V22.1429Z" fill="#53C07D"/>
<path d="M16.2427 12.8195V3.39265L10.3528 0V11.9131L19.979 17.4812L30.3317 11.5246L24.4159 8.1061L16.2427 12.8195Z" fill="#53C07D"/>
</svg>
