<svg fill="none" height="56" viewBox="0 0 178 56" width="178" xmlns="http://www.w3.org/2000/svg" xmlns:xlink="http://www.w3.org/1999/xlink"><clipPath id="a"><path d="m0 0h178v56h-178z"/></clipPath><g clip-path="url(#a)"><g fill="#4d4d4e"><path d="m85.8278 18.4478c1.0346 4.1291 4.3229 8.1467 11.8053 10.5393l-.0258.3259c-1.6055.3001-2.5585 1.1662-2.8032 2.9628-6.2289-3.1215-8.4611-8.5283-9.3283-13.0948-.9787 5.7842-3.9408 10.1063-13.3506 13.0948l-.219-.4073c7.4266-3.5846 9.6031-7.9581 10.2513-13.4207h-9.3025l-.219-.7847h9.5987c.1889-2.1996.1889-4.5364.1889-7.1177h-7.9932l-.2189-.78891h16.1839l1.8759-2.36256s2.1207 1.60363 3.4257 2.71847c-.0816.3001-.4078.433-.7899.433h-8.8646c-.0558 2.5813-.1074 4.9438-.3263 7.1177h6.2804l1.906-2.3925s2.1507 1.6036 3.4257 2.7441c-.0816.3002-.3821.4331-.7856.4331z"/><path d="m126.614 6.87511s2.258 1.71082 3.644 2.90711c-.081.29588-.407.43308-.815.43308h-11.016v4.9438c12.621 2.2811 11.175 9.9133 7.264 8.0695-1.55-2.5812-4.623-5.4883-7.264-7.4435v15.4831c0 .2444-1.09.9776-2.773.9776h-.626v-22.0262h-10.252l-.219-.78898h20.069z"/><path d="m75.0049 42.4047c-.0163.8604-.0163 1.7371-.0163 2.622v.42c0 .8604 0 1.729.0163 2.5976l.9227.0774v.3018h-3.0782v-.3018l.9226-.0774c.0082-.8523.0082-1.7209.0082-2.5976v-.42c0-.8686 0-1.7534-.0082-2.622h-1.335l-.3633 1.4191h-.4818l.0613-1.782h5.4706l.0531 1.782h-.4818l-.3552-1.4191z"/><path d="m80.6838 42.4292c-.0285.8604-.0285 1.7208-.0285 2.5975v.42c0 .8604 0 1.7371.0285 2.5976l.8165.0774v.3018h-2.8782v-.3018l.8165-.0774c.0164-.8523.0164-1.7209.0164-2.5976v-.42c0-.8604 0-1.729-.0164-2.5975l-.8165-.0775v-.3099h2.8782v.3099z"/><path d="m89.0775 48.1258v.3018h-2.7843v-.3018l.837-.0938-.543-1.6719h-2.0576l-.5063 1.6597.8451.1019v.3018h-2.0168v-.3018l.739-.1019 1.9637-6.0066h.7471l2.0576 6.0311zm-2.5924-2.0796-.9471-2.9523-.9145 2.9523z"/><path d="m96.7201 42.3517-.792.1101-.0408 5.9984h-.5961l-3.809-5.3541.0245 4.9055 1.1023.1101v.3018h-2.3271v-.3018l.8002-.1019.0449-5.4112-.1388-.1794-.6532-.0775v-.3099h1.8167l3.3763 4.6813-.0286-4.2491-1.1104-.1223v-.3099h2.3271v.3099z"/><path d="m103.901 48.1258v.3018h-2.894v-.3018l.837-.0775-1.282-2.308-1.3352 2.2713.7842.1101v.3018h-2.0498v-.3018l.8002-.1101 1.6376-2.573-1.6703-3.0094-.7756-.0775v-.3099h2.8859v.3099l-.816.0775 1.155 2.0756 1.205-2.0552-.792-.0938v-.3099h2.094v.3099l-.845.0938-1.507 2.3488 1.817 3.254z"/><path d="m107.335 42.4292c-.029.8604-.029 1.7208-.029 2.5975v.42c0 .8604 0 1.7371.029 2.5976l.816.0774v.3018h-2.878v-.3018l.817-.0774c.016-.8523.016-1.7209.016-2.5976v-.42c0-.8604 0-1.729-.016-2.5975l-.817-.0775v-.3099h2.878v.3099z"/><path d="m115.725 48.1258v.3018h-2.785v-.3018l.837-.0938-.543-1.6719h-2.057l-.507 1.6597.845.1019v.3018h-2.016v-.3018l.739-.1019 1.963-6.0066h.747l2.058 6.0311zm-2.593-2.0796-.947-2.9523-.915 2.9523z"/><path d="m126.041 48.1258v.3018h-2.784v-.3018l.837-.0938-.543-1.6719h-2.058l-.506 1.6597.845.1019v.3018h-2.017v-.3018l.739-.1019 1.964-6.0066h.747l2.058 6.0311zm-2.592-2.0796-.947-2.9523-.915 2.9523z"/><path d="m132.41 48.1013c-.551.31-1.172.4894-1.919.4894-1.91 0-3.335-1.2152-3.335-3.356 0-2.149 1.522-3.3479 3.368-3.3479.682 0 1.241.155 1.817.4812l-.017 1.4884h-.49l-.379-1.4721c-.249-.1019-.498-.1468-.776-.1468-1.274 0-2.241.9909-2.241 3.0013 0 2.0307.947 2.993 2.241 2.993.294 0 .559-.053.845-.1631l.38-1.4557h.498z"/><path d="m139.942 48.1258v.3018h-2.78v-.3018l.833-.0938-.543-1.6719h-2.058l-.506 1.6597.845.1019v.3018h-2.017v-.3018l.743-.1019 1.964-6.0066h.747l2.058 6.0311zm-2.592-2.0796-.947-2.9523-.915 2.9523z"/><path d="m144.013 42.0459c2.008 0 3.229 1.1866 3.229 3.1847 0 2.0022-1.319 3.201-3.385 3.201h-2.616v-.3017l.816-.0775c.016-.8522.016-1.7371.016-2.7117v-.2855c0-.8889 0-1.7575-.016-2.626l-.816-.0775v-.3099h2.772zm-.188 6.0473c1.376 0 2.151-1.0602 2.151-2.8585 0-1.8513-.775-2.8585-2.094-2.8585h-.588c-.024.8685-.024 1.7656-.024 2.675v.2854c0 .9828 0 1.8758.024 2.7525h.531z"/><path d="m153.717 46.6986-.025 1.729h-4.989v-.3018l.817-.0775c.016-.8522.016-1.7208.016-2.5975v-.42c0-.8604 0-1.729-.016-2.5976l-.817-.0774v-.3099h4.814l.008 1.6841h-.465l-.327-1.3253h-1.972c-.024.8441-.024 1.7004-.024 2.6057h1.29l.13-.9379h.405v2.1694h-.405l-.122-.9012h-1.302c0 .9705 0 1.8595.024 2.7362h2.143l.335-1.3742h.482z"/><path d="m162.352 42.4292c-.009.8685-.009 1.7371-.009 2.5975v.42c0 .8686 0 1.7371.009 2.5976l.824.0774v.3018h-2.841v-.3018l.792-.0774c.024-.8523.008-1.7127.024-2.4589l.017-2.7118-2.103 5.5499h-.42l-2.16-5.5132c.024.8605.045 2.0063.045 2.3651v2.7444l.906.1019v.3018h-2.241v-.3018l.914-.1019.033-5.558-.902-.1101v-.3099h2.102l1.911 4.8525 1.861-4.8525h2.066v.3099z"/><path d="m168.067 45.7607c0 1.0602 0 1.6352.016 2.2876l.931.0775v.3018h-3.086v-.3018l.923-.0775c.016-.6198.016-1.1621.016-2.1245l-1.731-3.5109-.568-.0612v-.3099h2.826v.3099l-.878.0938 1.359 2.9523 1.352-2.9319-.854-.1101v-.3099h2.066v.3099l-.759.1101z"/></g><path d="m.0408325 23.2051.1306425-.0611c.326605-.159.657293-.3181.979815-.4608.23271-.1019.46541-.1998.7022-.2936.2572-.106.51849-.208.77161-.3262.30211-.1387.59197-.2936.89816-.4567.17147-.0938.34702-.1835.51849-.2732.34294-.1387.66954-.2651.99615-.3915.51032-.1957 1.03697-.3996 1.54729-.6198.62055-.2651 1.24518-.5709 1.8494-.8645l1.09822-.5301c.63279-.3018 1.29009-.6117 1.92289-.9665.1715-.0693.3062-.1386.445-.2038.1266-.0612.2572-.1265.3878-.1795.1307-.053.2613-.1019.392-.1468.1469-.053.2939-.1019.4327-.1672.147-.0652.2899-.1468.4287-.2242.1021-.0571.2082-.1183.3143-.1713.0164-.0122.0327-.0245.049-.0367.0164-.0122.0327-.0245.0409-.0326 0 0 0-.0163.004-.0326.0082-.0449.0164-.0979.0409-.1591.0245-.0571.0571-.1019.0775-.1345.0082-.0164.0245-.0327.0286-.0408.0245-.0693.0776-.1224.147-.1509.298-.1101.4246-.3874.4327-.9501.0082-.4241-.0204-.9012-.0857-1.3742l-.0449-.2977c-.0449-.2936-.0898-.5954-.1021-.8971-1.3962-.1223-1.9433-.0979-2.7516-.0653-.4695.0204-1.0533.0449-1.9474.0449-1.23294 0-1.84941.0082-2.46587.0204-.62055.0122-1.23702.0204-2.47404.0204-1.10638 0-1.73101-.0163-2.27807-.0286-.64913-.0163-1.21661-.0285-2.392388-.0163-.008166.0408-.024496.0775-.0489912.1101-.0122477 1.1622-.0204129 2.3203-.028578 3.4824-.0040826.6484.0040826 1.2968.0163303 1.941.0081651.5628.0163302 1.1255.0163302 1.6882 0 .5669-.0081651 1.1377-.0163302 1.7086-.0244954.5138-.0326606 1.0276-.0326606 1.5373z" fill="#aba187"/><path d="m46.0187 36.1072c.2654.0204.5348.0489.8043.0775.4981.053 1.0165.106 1.5187.106.0776 0 .1715-.0122.2735-.0285.0817-.0123.1715-.0245.2654-.0327.0572-.004.1143-.0081.1715-.0122.1224-.0081.2408-.0122.3388-.0448.1143-.0367.2327-.1142.3634-.2488.3796-.2895.6328-.5913.7716-.9175.1306-.3099.1837-.6973.1633-1.1744-.0204-.4852-.1143-.8604-.2776-1.1418-.0164-.0285-.0245-.057-.0327-.0856-.0123-.0897-.0449-.1794-.0776-.2732-.0245-.0652-.0449-.1305-.0653-.1957-.0204-.0653-.0327-.1305-.049-.1998-.0245-.102-.0449-.1999-.0776-.2773-.0408-.0897-.102-.1754-.1673-.2651-.0327-.0448-.0694-.0938-.098-.1386-.0082-.0123-.0163-.0245-.0204-.0367 0-.0041-.0041-.0041-.0041-.0082-.0163-.0122-.0327-.0285-.049-.0448-.0123-.0123-.0204-.0204-.0327-.0286.0041.0041-.0122.0041-.0245.0041-.0408 0-.0898-.0041-.1469-.0163-.0572-.0123-.1062-.0367-.1429-.0571-.0123-.0082-.0286-.0163-.0409-.0204-.0734-.0163-.1347-.0163-.2041-.0163-.0612 0-.1225 0-.1796-.0082-.0613-.0081-.1266-.0204-.1878-.0326-.0653-.0122-.1307-.0285-.1837-.0285-.0572 0-.1143.0122-.1674.0244-.0694.0123-.1429.0245-.2123.0286-.0163 0-.0327 0-.0449 0-.0735-.0082-.1388-.0326-.1919-.049-.0367-.0122-.0735-.0244-.098-.0285s-.0612 0-.1061.0082c-.0613.0081-.1225.0122-.1797.0081-.0571-.0041-.1102-.0122-.1673-.0245-.0368-.0081-.0776-.0244-.1021-.0163-.0163 0-.0531.0123-.0817.0245-.0571.0204-.1143.0367-.1714.0489-.0694.0082-.1347.0082-.1919.0041-.0327 0-.0694-.0041-.0857 0-.0286.0041-.0531.0163-.0817.0286-.0571.0203-.1225.0489-.2041.057-.0204.0041-.0368.0041-.0572 0-.0775-.0081-.1347-.0407-.1714-.0652-.0205.0122-.0899.0245-.1674.0041-.0286-.0082-.0531-.0163-.0776-.0286-.0082.0041-.0163.0041-.0245.0082-.0286.0041-.0531.0041-.0776.0041-.0204.0081-.0408.0163-.0653.0204-.0367.0081-.0775.0081-.1143-.0041-.0122-.0041-.0245-.0082-.0367-.0123-.0204-.004-.0368-.0081-.0531-.0122-.0286-.0081-.0531-.0285-.0776-.0489-.0449 0-.102.0041-.1592.0041-.0653.004-.1347.004-.196.004-.0734-.004-.1429-.0081-.2163-.0163-.0817-.0081-.1674-.0204-.2491-.0122-.0775.0041-.151.0245-.2245.0408-.0817.0204-.1633.0367-.2491.0448-.0734.0082-.1388-.0041-.1877-.0163l-.0531.0041c-.0449.0163-.1062.0367-.1797.0408-.0775-.0041-.1388-.0163-.1837-.0327-.0163 0-.053-.0122-.0694-.0122-.0735-.0122-.1429-.0285-.2164-.0367-.1796-.0285-.3633-.0612-.5429-.1223-.1838-.0612-.3471-.1509-.5022-.2325-.0653-.0367-.1306-.0693-.196-.1019-.0653-.0326-.1306-.0612-.2-.0938-.1674-.0775-.3389-.1549-.4981-.261-.0204-.0163-.0408-.0326-.0571-.053-.3675-.4608-.5675-.9705-.7145-1.4068-.1878-.5668-.2939-1.0521-.3266-1.521-.0286-.3996-.0041-.8074.0245-1.1989l.0204-.3262c.0164-.106.0204-.1957.0286-.2814.0122-.1386.0204-.2732.049-.4118.0286-.1346.0694-.2651.1143-.3956.0286-.0815.0572-.1672.0776-.2487.0245-.0856.0408-.1713.0571-.2569.0204-.1101.0449-.2202.0735-.3262-.0163-.0163-.0245-.0327-.0326-.049-.0041-.004-.0041-.0122-.0082-.0163-.0123 0-.0204.0041-.0286.0041-.0163 0-.0326.0041-.049 0-.0939-.0082-.1919-.0285-.2858-.053-.0571-.0122-.1102-.0286-.1673-.0367-.147-.0204-.2981 0-.445-.0204-.0776-.0122-.1511-.0285-.2246-.0489-.0653-.0163-.1265-.0367-.1919-.0408-.0612-.0041-.1306.0041-.2082.0163-.0735.0082-.1429.0163-.2164.0204-.0857 0-.1714-.0082-.2572-.0163-.0653-.0082-.1265-.0123-.1878-.0123-.053 0-.1061.0082-.1592.0123-.0939.0122-.2041.0244-.3184.0122-.1062-.0122-.2041-.0408-.2899-.0652-.0531-.0163-.1102-.0327-.1633-.0408-.0612-.0122-.1225-.0122-.1878-.0163-.0857-.0041-.1755-.0082-.2613-.0245-.0775-.0122-.151-.0367-.2245-.0612-.0653-.0203-.1306-.0407-.196-.0489-.049-.0041-.1224.0082-.1878.0122-.0816.0082-.151.0164-.2408.0164s-.1797-.0123-.2695-.0286c-.0653-.0081-.1265-.0204-.1919-.0204-.0571-.0041-.1143.0041-.1755.0082-.0939.0081-.196.0163-.3021.0041-.0409-.0041-.0776-.0164-.1062-.0286-.0326.0082-.0694.0163-.1143.0122-.0776-.004-.1347-.0407-.1633-.0611-.7267-.2243-1.486-.4159-2.2168-.6035-.245-.0612-.4899-.1224-.7308-.1876-.3062-.0775-.6124-.1631-.9186-.2447-.6695-.1794-1.3636-.3629-2.0494-.5219-.543-.1264-1.0942-.2365-1.6412-.3507-.4573-.0938-.9104-.1835-1.3677-.2855-.596-.1753-1.1758-.3629-1.7555-.5464-.592-.1876-1.1798-.3751-1.7759-.5546-.8084-.2405-1.6453-.4607-2.4495-.6769-.3634-.0978-.7308-.1957-1.0942-.2936l-.7961-.2202c-.8532-.2365-1.7391-.4811-2.621-.685-.0081.004-.0163.004-.0245.0081-.0122.0041-.0204.0041-.0326.0041-.0123.0041-.0286.0082-.0409.0082-.0857.0122-.2163.0407-.3388.1223-.0531.0367-.1062.0897-.1674.1509-.0531.053-.1062.106-.1633.1549-.0612.053-.1266.0979-.1919.1427-.0408.0286-.0857.0571-.1265.0898-.0245.0652-.0654.106-.1021.1304-.0123.0082-.0245.0123-.0368.0204-.0122.0123-.0244.0204-.0367.0327-.0408.0285-.0776.0407-.1143.0489-.0204.0285-.049.0571-.0898.0775-.0368.0204-.0735.0326-.1062.0367-.0204.0244-.049.0489-.0857.0652-.0327.0163-.0694.0286-.098.0326-.0204.0245-.0449.0449-.0816.0612-.0694.0326-.1307.0449-.1797.0571-.0163.0041-.0326.0041-.049.0122-.0081.0082-.0204.0204-.0367.0286-.0367.0326-.0817.0734-.147.106-.0612.0326-.1265.0448-.1714.053-.0164.0041-.0327.0041-.045.0122-.3715.1387-.7267.2936-1.0655.4404-.2205.0938-.4409.1917-.6655.2855-.2817.1142-.5674.2243-.8532.3303-.294.1101-.59199.2243-.88186.3425-.22862.0938-.45724.1957-.68587.2936-.33477.1468-.68587.3018-1.03289.4323-.02041.0081-.04491.0122-.07348.0122-.01633.0122-.03675.0204-.06124.0285-.00817.0041-.02041.0041-.03266.0082-.00817.0081-.02041.0122-.02858.0163s-.02041.0082-.03266.0122c-.01633.0082-.02858.0163-.04491.0245-.08573.0326-.15514.0408-.21638.053-.03674.0041-.0694.0082-.10206.0204s-.06124.0326-.0939.0489c-.05307.0327-.11023.0694-.18371.0938-.07349.0245-.14289.0367-.20413.0449-.03675.0041-.06941.0081-.10207.0204-.01633.0081-.0694.053-.12247.0938-.05308.0448-.11023.0856-.17147.1223s-.12656.0693-.19188.1019c-.05716.0286-.1184.053-.17147.0938-.04899.0367-.08982.0775-.13473.1224-.05715.057-.11431.1141-.17963.159-.01225.0081-.02449.0163-.04082.0245-.06533.0326-.12248.0407-.16739.0448-.05307.0408-.09798.0856-.15922.1183-.06124.0326-.11839.0407-.1633.0489 0 .0041-.04083.0326-.07349.0693-.04491.053-.08981.102-.14289.1427-.05307.0449-.11431.0775-.17963.1101-.03674.0204-.07349.0367-.10615.0612-.02858.0245-.05307.053-.08165.0856-.04491.049-.0939.1061-.15922.155-.01633.0122-.03266.0204-.04899.0285-.01225.0123-.0245.0163-.03674.0245-.05308.0285-.12248.0326-.1878.0163-.33477.0775-.6328.1998-.91858.3222l-.07757.0326c-.40417.1712-.73894.318-1.03697.4975-.15106.0897-.28986.1875-.43275.2854-.18372.1264-.37152.2569-.57156.367-.08574.0408-.15106.0571-.212296.0693-.040826.0082-.077569.0163-.097982.0286-.024495.0122-.053073.0326-.085734.0571-.053073.0407-.110229.0774-.171468.106-.061238.0285-.126559.0448-.195963.0612-.028578.0081-.057156.0122-.085734.0203-.03266.0327-.081651.0734-.151055.0979-.040826.0122-.077569.0163-.1143118.0163-.0040825.0245-.0081651.049-.0122477.0734-.0081651.0408-.0163302.0775-.0163302.102 0 .0326.0081651.0693.0163302.1019.0163303.0653.028578.1346.028578.2039 0 .0775-.0122477.1427-.0244954.2039-.0081651.0367-.0122477.0693-.0163303.0938.0163303.0448.028578.1019.0244954.1672-.0040825.0489-.0204128.0856-.0367431.1182.0122477.0326.0204129.0734.0204129.1183 0 .0897-.0122477.1794-.028578.265-.0081652.0653-.02041286.1305-.02041286.1998 0 .0653.00816516.1346.01633026.1999.0081651.0897.0204129.1753.0204129.265 0 .0856-.0122478.1754-.0244955.261-.0081651.0611-.0204128.1264-.0204128.1916 0 .0123.00816514.0286.0163303.049.0122477.0448.028578.0978.0367431.159.0040826.0653-.0040826.1223-.0081651.1672-.0040826.0204-.0081652.0449-.0081652.053.0040826.0122.0122477.0326.0204129.0489.0204128.0449.044908.102.057156.1713.004082.1509-.004083.2651-.0163304.3833-.0081651.0979-.0163302.1957-.0163302.2936s.0122477.1957.0204126.2936c.012248.1142.024496.2284.024496.3425 0 .1142-.008166.2284-.020413.3426-.0081654.0734-.0122479.1468-.0163305.2202.0204125.0367.0408255.0856.0367435.1468 0 .0163-.004083.0326-.008166.053.004083.0163.008166.0367.008166.0571 0 .0122 0 .0285-.004083.0408.004083.0163.004083.0326.008165.0489.004083.0448-.012248.0938-.0367429.1386.0040825.1061.0122479.1713.0163299.2325.012248.0938.020413.1835.020413.367 0 .0611 0 .1141-.004082.159.040825.0245.085734.053.134724.0938.167386.1264.167386.1713.004083.0979-.053073-.0245-.102064-.0531-.146973-.0816-.004082.0367-.008165.0693-.012247.1019-.0081654.0775-.0204131.155-.0204131.31 0 .1508.0081652.2242.0204131.3017.012247.0938.024495.1876.020413.3792-.012248.102-.0367435.1591-.0571563.1999l-.0081652.057c.0081652.0408.0204129.0979.0163303.1631-.0040826.0653-.0244954.1183-.0367431.1591-.0081652.0408 0 .0775.0081651.106.0122477.0489.028578.1101.0326606.1794.0040825.0693-.0040826.1346-.0122477.1876-.0040826.0326-.0081652.0693-.0081652.0856 0 .0164.0122477.049.0204129.0816.0163302.053.0367426.1182.0449086.1916.004082 1.097-.004083 1.7331-.012248 2.2918.024495.004.044908 0 .065321.0081.277615.0938.040826.7829-.053073.681-.004083-.0041-.016331-.0041-.024496-.0082-.0081649.5546-.0163301 1.1867-.0163301 2.2673 0 1.3008.0081652 1.9532.0204131 2.6057.008165.5423.01633 1.0928.020413 2.0103l.367431.8033c.228624.3018.224541.4241-.012248.2773-.069404-.0448-.204128-.0448-.355183-.0244-.004083 1.0153-.012248 1.5862-.020413 2.1612v.0734l.902243-.5057c.34294-.1631.55932.2121.76753.2284s.24087-.3425.1878-.4445c-.049-.106.07756.0693.28578.3833l.28986.8482c-.04083.3752-.36335.575-.71853.4404l-.59606-.0082c-.326605.1917-.628715-.5505-.926742-.5586-.073487-.0041-.14289.0326-.2041289.0856-.0081652.5097-.0122477 1.1133-.0122477 2.0674 0 .4853.1102296 1.048.3347706 1.7331.228624.6891.46133 1.1826.755278 1.6066.29802.4323.7022.836 1.22885 1.2315.11023.0571.21638.1183.32252.1794.13065.0775.2572.1509.39601.2121.19597.0897.41234.1468.62055.2039l.24496.0693c.23679.0693.46133.1346.6777.1346.70221.0285 1.40849.053 2.10661.0652.13064-.2895.40417-.681.56339-.6198.23271.0938 1.51872.0489 1.84941.1957.3266.1427.38784.208.13064.1387-.10207-.0286-.38376.1223-.69812.3058 1.54728.0082 3.07828-.0041 4.58468-.0204l.543-.0041c.4409-.004.9145-.0081 1.4003-.0122l-.0898-.0489c-.2939-.2406-.1714-.6932-.1265-.7503s.053-.2529.0245-.4364c-.0327-.1835.2204-.1916.5552-.0203l1.9229 1.0643c.0612.0652.0898.1264.102.1753 1.6698-.0082 3.4743-.0122 5.3033-.0041 2.7272.0123 5.9034.053 9.1001.3303h.0244c.5389 0 1.0983.0286 1.6943.0612.4001.0204.8084.0408 1.2166.053.89.0285 1.8494.0081 2.9313-.0571.8737-.053 1.8004-.1305 2.6782-.3588.0081-.0163.0122-.0327.0245-.0449.0285-.0449.0694-.0775.1143-.0938-.0041-.0489-.0082-.0897-.0123-.1346-.0081-.0815-.0204-.1712-.0204-.3139-.151-.1101-.2939-.2202-.3919-.261-.098.0326-.1511.0448-.1184 0 .0204-.0286.0612-.0204.1184 0 .098-.0326.249-.0938.4042-.1509.004-.0367.0081-.0693.0081-.106.0082-.0938.0204-.1835.0204-.367 0-.1794-.0081-.2732-.0204-.3629-.0122-.1061-.0245-.2121-.0204-.4241.0041-.0734.0245-.1224.0408-.1591-.0122-.0407-.0245-.0897-.0245-.1427 0-.0489.0164-.0938.0286-.1264-.0122-.0326-.0245-.0734-.0286-.1182 0-.0408.0041-.0775.0164-.1061-.0123-.0285-.0245-.0652-.0286-.106 0-.2039.0082-.2936.0204-.3833.0082-.0734.0204-.1427.0204-.2895s-.0081-.2161-.0204-.2895c-.0122-.0898-.0245-.1795-.0245-.3548 0-.1794.0123-.2691.0204-.3589.0082-.0733.0164-.1468.0204-.2895-.0122-.0571-.0285-.1182-.0204-.1876.0082-.0611.0286-.1101.0449-.1468-.0163-.0448-.0285-.0937-.0285-.1467 0-.0653.0163-.1224.0285-.1632l-.004-.0489c-.0164-.0408-.0368-.0979-.045-.1672-.0081-.0693.0041-.1264.0164-.1712 0-.0082.0041-.0408.0041-.049 0-.3588-.0123-.5423-.0205-.7258-.004-.049-.004-.0979-.0081-.1509l-.543-.0408c.1102-.6361.2572-.3833.5348-.1182-.0041-.1224-.0082-.2651-.0082-.4608 0-.3793.0123-.5709.0205-.7626.0081-.1835.0204-.367.0204-.734 0-.3629-.0082-.5464-.0204-.7299-.0123-.1916-.0205-.3792-.0205-.7625 0-.0653.0205-.1183.0368-.155-.0163-.0408-.0286-.0897-.0245-.1468 0-.053.0163-.0979.0286-.1305-.0123-.0326-.0286-.0774-.0286-.1223 0-.0489.0082-.0897.0204-.1223-.0163-.0327-.0286-.0775-.0286-.1224 0-.473.0082-.7054.0204-.9419.0123-.2243.0205-.4527.0205-.9053s-.0082-.681-.0205-.9053c-.0122-.2324-.0204-.4648-.0204-.9297s.0123-.6973.0204-.9297c.0082-.2284.0205-.4527.0205-.9053 0-.0408-.0082-.0815-.0123-.1223-.0082-.0734-.0204-.155-.0122-.2447.0081-.0979.0367-.1835.0612-.2528.0122-.0326.0245-.0693.0327-.102.0081-.0407.0081-.0815.0122-.1182.0041-.0775.0123-.1631.0408-.2488.0164-.057.0531-.1019.1021-.1345.0572-.0367.1143-.053.1592-.0693.0204-.0041.0449-.0164.0531-.0204 0-.0041.0082-.0163.0204-.0245.0286-.0326.0653-.0775.1143-.1183.0449-.0367.0939-.057.1307-.0734.0122-.0081.0285-.0122.0408-.0203.0081-.0082.0081-.0082.0163-.0164.6451-.5138 1.3758-.8318 2.2373-.9664.7226-.1182 1.5064-.1386 2.4005-.0734zm-44.99398 5.611c-.159215.0367-.400087-.8196-.289858-.9583.11023-.1386.285778.0041.387848.3181.10614.3181.06123.6076-.09799.6402zm.14698-4.2816c-.16331-.0734-.175553-.3344-.02858-.5832.15105-.2487.2817-.1916.29803.1305.01633.3181-.10615.522-.26945.4527zm1.51055-5.5254c-.11023.1386-.27762.1713-.3756.0693-.09798-.1019-.00816-.2161.20005-.2528.20413-.0367.28169.0448.17555.1835zm1.05738 16.4619c-.02449-.0734-.02449-.1549-.00408-.1835.02041-.0285.05716.049.07757.1713s-.04899.0856-.07349.0122zm.1878.3466c-.01225.0245-.04899.0449-.06124-.0203-.01225-.0653.02858-.0653.04491-.049.0245.0123.02858.0449.01633.0693zm2.64142-.6769c-.06124.1917-.39601.2488-.74711.1346s-.64913-.0571-.66137.1346c-.01633.1875-.21638.3996-.445.4689-.22863.0693-.08165-1.2152.18779-1.3823.26945-.1672.88592-.1224 1.04922 0 .16739.1264.31436.1182.33069-.0164.01633-.1345.16739-.0978.33886.0775.17146.1713.00816.3915-.05308.5831zm-.70628-6.4755c.02041-.0285.19596.0734.38376.2243s.17147.1754-.04083.049c-.20821-.1224-.36334-.2447-.34293-.2733zm-.64096-9.8315c.57972-.1304 1.6861.2977 2.51894.2529-.81243.632-1.60037-.208-2.51894-.2529zm3.35587.31c-.12248.3262-.27354.2895-.33886-.0775-.06123-.3711.07349-.6851.30211-.6973.22863-.0123.15922.4485.03675.7748zm4.62962 7.711s.3879.1835.7512.2732c.3634.0897.3511.1917-.0245.2365l-.2123.0245c-.3756.0408-1.2493-.208-1.2084-.4282.0408-.2202.3511-.2691.694-.106zm-.3184 5.7252c-.1184-.0734-.098-.0979.0408-.053.1388.0448.2205.1753.1796.2814-.0408.1101-.0612.1304-.0408.053.0163-.0816-.0612-.208-.1796-.2814zm-.3021-6.0188c-.0409-.0245-.0817-.053-.1266-.0775.0612.0041.1021.0327.1266.0775zm-1.2656-.1753c.0285-.3752.547-.2895.7593-.155.2082.1387.2613.2569.196.2732s-.1715.1958-.147.2773c.0286.0775-.3266.7095-.5185.5587-.1878-.1468-.3184-.5791-.2898-.9542zm-.5634-.0245-.245.6524c-.68586-.3955.0327-.3262.245-.6524zm-1.70246-.1468c.33477-.0163.92266.0489.8655.7381-.5144-.367-.82876.0367-.8655-.7381zm.8655 6.7039c.08576-.1224.13476-.314.16326-.4201-.23674-.0203-.33473-.0815-.20817-.1508.15517-.0857.25317-.0286.21227.1345 0 .0041-.0041.0123-.0041.0163.0572.0041.1225.0082.196.0082l.592-.9501c.3715-.0693 1.0002-.7259 1.0125-.9664.0122-.2406.1224-.2936.2449-.1101.1225.1794.0776.424-.1021.5423-.1796.1183-.1224.4485.1225.7381l-.4613 1.0398c.1061.3629-.0939.7707-.4491.9012l-1.2003-.7993c-.04487 0-.08162.0082-.11836.0164-.04899.0734-.11023.1223-.18371.1141-.1878-.0122-.09799-.0611.18371-.1141zm-.20413 2.202c-.04082.0652-.06124.0897-.05307.053.00408-.0163.02449-.0327.05307-.053.04899-.0816.13065-.2243.22863-.4119 0 0 .30206-.5831-.13064-.8523.8614.5383 1.8494.2529 1.8494.2529.3633-.1061.9308-.0408 1.2615.1427l.7471.7421c.2409.2936.2613.4608.049.3752-.2164-.0856-1.0492-.212-1.0125-.053.0368.1631-.2327.2283-.6042.1509l-1.7147-.5179c-.3062.0367-.56744.106-.67359.1713zm3.25379 2.0755c-.3429-.1794-.1143-.681-.2898-.8604.5878.0653.6042.4445.2898.8604zm-.2-1.5821c.049.0652.098.1386.1347.2202.0449.1264-.0572-.0164-.1347-.2202zm.1102 4.0818s-.0041-.1346-.1551-.4485c-.1511-.314-.4287-.5628-.6124-.5546-.1837.0081-.3838-.3018-.4369-.4608-.053-.159.0041-.1835.1225-.0571.1225.1264.3797.0693.5797-.1305.196-.1957.5267-.1794.4246.1713-.0979.3507.0123.8849.245 1.1825l.0286.0367c.2408.3018.151.416-.196.261zm.7961 2.5078c-.2082.0734-.4001.1754-.5838-.2569.0939-.9256.2164.0245.5838.2569.1102-.0407.2286-.0734.347-.0122-.1347.0856-.249.0734-.347.0122zm.4328-6.6753c.1143.1183.1959.2814.2327.522-.0654-.1835-.147-.3589-.2327-.522zm1.3309-8.4777c.0367-.1631.3633-.1998.7226-.0815l.2204.0734c.3593.1182.6533.1713.6492.1182-.0041-.053.7797.7177.6573.9909-.1225.2733-.2613.4731-.3021.4486-.0409-.0285-.3471.0408-.4165.0693-.0694.0286-.0326-.0611.0735-.1998.1103-.1386-.1102-.2936-.4858-.3425l-.6614-.5709c-.3715-.0041-.494-.3425-.4572-.5057zm.5715 9.1057c-.2286.0652-.3062-.0163-.1755-.1835.1306-.1672.3184-.2243.4123-.1223.098.1019-.0081.2406-.2368.3058zm.5226.4975.0204.4486c-.2286-.314-.1837-.4119-.0204-.4486zm.1796-.0122c-.0979.004-.1796-.0204-.1796-.0571s.0776-.0612.1796-.0571c.098.0081.0939.1101 0 .1142zm-.1306-6.8955-.8614-.6036c-.3756.0367-.3838-.0081-.0204-.106l.7512.3099c.3715-.0815.7062-.2813.743-.4404.0367-.1631.0612-.0978.049.1428-.0123.2405-.3103.5545-.6614.6973zm.5226 6.8547c.2327-.0326.4613-.1101.5879-.3385.1837.5628-.1919.4527-.5879.3385zm.943-8.18c.1103-.1387.294-.1917.4124-.1183s.0286.1876-.196.2528c-.2286.0653-.3225.0082-.2164-.1345zm.6696 7.5479c-.0653.0857-.2368.0286-.3797-.1264-.1429-.1509-.0939-.2202.1184-.1509.2082.0694.3266.1917.2613.2773zm2.5802 1.5659-1.2452.2569c-.2246-.3058-.3307-.6035-.2409-.6647.0653-.0448.1388-.734.0653-1.0561-.1919.0122-.3552-.053-.1592-.1509.0817-.0408.1306.0285.1592.1509.0939-.0041.196-.0286.2613-.0734.2001-.1427.4613.0326.5838.3914l.988 1.0276c-.0082.3752-.196.4282-.4123.1183zm1.437 2.308c-.347-.0122-.6532-.4159-.3592-.5627.2939-.1468.6491.2243.7675.3507s-.0653.2242-.4083.212zm3.0211-1.5128c-.1633-.0694-.1469-.0938.0409-.0531.1877.0408.3184.102.298.1305-.0245.0286-.1756-.0081-.3389-.0774zm8.5285-14.9288c-.0245.0164-.0531.0204-.0816.0123.2041-.1183.249-.1305.0816-.0123zm.2123 9.8071c-.1347-.0734-.1102-.1224.049-.102.1592.0163.2858.1346.2776.2529-.0082.1223-.1919-.0775-.3266-.1509zm.2939.6157.0164-.2446c.0286.0978.0286.1875-.0164.2446z" fill="#aba187"/><path d="m14.7626 6.85738s-.0204-.04486-.1674-.09379c-1.3636-.45263-1.8984-.35885-2.7027-.2202-.4899.08563-1.0941.19165-2.02085.19165-1.20027 0-1.80041.00816-2.40055.02039-.60422.01224-1.20436.02039-2.40871.02039-1.20028 0-1.8045-.01223-2.40464-.02039-.5838-.00815-1.16353-.02039-2.2944-.02039-.032661.01632-.069404.02447-.106147.02039-.004082 0-.004082 0-.008165 0-.020413.00408-.036743.00816-.057156.00816-.004083 0-.008165 0-.012248 0-.004082.00815-.008165.02039-.012247.02854-.004083.20797 0 .42001.004082.62798.004083.24467.008165.49341.004083.73808-.004083.24466-.020413.48933-.036743.73399-.016331.24467-.028578.48934-.036744.72992-.0040821.24875 0 .4934.008166.7422.008165.2405.012247.4771.008165.7176.012247.0204.020413.0367.028578.0531.004082.004.004082.0081.004082.0122.020413 0 .040826 0 .057156.0041.020413-.0082.040826-.0123.065321-.0163.016331-.0041.032661-.0041.048991 0 .11023-.0327.200046-.0041.298028.0081.069403.0082.134724.0163.200046.0122.065321-.004.126559-.0163.187802-.0285.08573-.0163.17146-.0326.26128-.0367s.1878.0041.2817.0163c.11023.0122.22046.0122.33477.0082.10614-.0082.22454-.0123.3511.004.08982.0123.17555.0367.26537.0612.06532.0204.12656.0367.19188.0449.07757.0081.1633.004.2572 0 .06124-.0041.11839-.0082.17963-.0082.08574 0 .17147.0082.26129.0204.0694.0082.12247.0204.20412.0163.06533 0 .13473-.0122.20005-.0204.08982-.0122.17555-.0244.26537-.0244.0939.004.17963.0081.27353.0203.05716.0082.11023.0164.16738.0164.04491-.0204.09799-.0408.15922-.0449.05716-.0041.10615.0082.14289.0204.04083-.0204.08574-.0367.13881-.0408.17555 0 .32252.0082.4695.0204.17147.0122.34293.0245.50624.0204.1633-.0041.33068-.0163.49399-.0326.15105-.0123.30211-.0286.45724-.0327.15514-.004.31028 0 .4695.0041.1633.0041.32252.0082.48583 0 .04082.0041.07756-.0041.11431-.0122.05715-.0082.12247-.0204.19596-.0204.07349.0041.13881.0163.19596.0326.03675.0082.07757.0163.0939.0163.02042 0 .05716-.0081.0939-.0122.14697-.0285.29395-.0204.44092-.0041.0694.0082.13881.0204.20821.0163.06532 0 .13064-.0122.20005-.0244.08981-.0163.17555-.0286.26536-.0286.09799 0 .1878.0082.2817.0204.11844.0122.23674.0163.35924.0082.098-.0082.2123-.0163.3266-.0041.0898.0081.1756.0285.2654.053.0653.0163.1306.0326.1919.0408.0775.0081.1592 0 .2368-.0041.1429-.0122.2898-.0082.4327.0041.0735.0081.147.0163.2205.0122.0653-.0041.1306-.0163.1959-.0326.0899-.0163.1756-.0367.2654-.0408.098-.0041.2001.0041.3021.0122.1266.0123.2572.0082.3797-.0081.0816-.0122.1633-.0245.245-.0245.0857 0 .1714.0082.2612.0163.0654.0082.1266.0123.1919.0163.0613 0 .1225-.0122.1797-.0203.0898-.0123.1796-.0245.2735-.0245h.0204.0122c.0368-.0041.0613 0 .0899.0041.0245.0081.049.0163.0694.0285h.0122c-.0041-.3221-.0122-.4893-.0204-.6606-.0122-.2039-.0204-.4078-.0204-.81146 0-.4037.0122-.60759.0204-.81148.0082-.19573.0204-.39146.0204-.78293 0-.35069.1184-.64429.2123-.8808.049-.13864.1266-.32622.1021-.37515zm-8.96943 2.80142c.04082.04486.08165.09787.11431.16719-.06532-.06524-.0939-.11825-.11431-.16719zm1.32275-.95827c-.15922.04078-.10207-.22428-.06532-.33438.03674-.1101.13064-.09786.21229.03262.07757.12641.01225.26098-.14697.30176z" fill="#aba187"/><path d="m55.3882 4.04371c-.1062-.37108-.2695-.75847-.5103-1.22333-.1919-.37516-.4165-.75439-.7512-.99498-.0123-.00815-.0245-.02039-.0368-.03262-.1429-.15496-.3143-.28137-.498-.41593l-.2736-.20797c-.1837-.14272-.3592-.277288-.543-.371076-.2204-.1101-.4695-.175345-.7144-.232433l-.0327-.008156c-.4246-.012233-.8451-.028544-1.2696-.048933-.0041 0-.0082 0-.0123 0 0 .024467-.0041.057089-.0163.093789.0245.016311.049.028544.0816.044855.1919.089711.2042.265055.0327.387384-.1756.12234-.9023.07748-.5838.04894.2204-.01631.4123-.305835.4695-.485257-.0613-.0367-.0939-.0734-.0898-.097867-.4614-.020388-.9227-.040777-1.3881-.048933-.4899-.008155-.9839-.004078-1.4779-.004078-.445.004078-.8859.004078-1.3309 0-.4491-.004077-.8982-.020388-1.3473-.0367-.4531-.016311-.9063-.028544-1.3595-.036699-.053.032622-.102.040777-.1429.040777-.0122 0-.0245 0-.0326-.004078-.0082 0-.0163.004078-.0245 0-.0572.008156-.1102-.008155-.1551-.040777-1.0533-.008156-2.1067-.004078-3.1559.004078-.792.004077-1.5799.012233-2.3719.008155-.8206 0-1.6453-.008155-2.47-.020389-1.0574-.012233-2.1107-.020389-3.1722-.016311-1.0165.004078-2.0372.020389-3.0537.0367-.8655.020389-1.7269.032622-2.5924.040778l-.147-.008156c-2.078-.154955-4.2255-.3180658-6.3525-.3792323-1.8902-.0570888-3.8866-.04485545-6.4831.0366999-1.9229.0530114-4.19281.1508774-6.46272.4036994-.02041.004077-.03674.004077-.05716 0-.06532.016311-.12656.028544-.19596.020389-.0694-.008156-.12248-.028545-.1633-.044856l-.04899-.004078c-.08574.024467-.24496.024467-.38785.012234-.07348-.008156-.14697-.016311-.21637-.012234-.06532.004078-.12656.016311-.19188.032623-.08574.016311-.17555.036699-.26537.040777-.09798.004078-.19596-.004078-.29803-.012233-.04082-.004078-.08573-.008156-.12656-.012233-.03674.020388-.08573.040777-.14289.040777-.03266 0-.06532-.004077-.0939-.012233-.02449.012233-.05715.020389-.08981.024467-.00817 0-.02042 0-.02858 0-.07349.004077-.1184-.020389-.1633-.057089-.76753-.069322-1.4534.1101-2.11477.550499-.63689.42409-1.17578 1.03575-1.563629 1.77383-.306192.5872-.538899 1.28857-.689954 2.09189.077569-.02446.175551-.05301.298028-.05301.134724 0 .200046-.00815.265367-.02039.085734-.01223.167388-.02446.334768-.02446.16739 0 .24904.01223.33477.02446.05308.00816.10615.01632.19597.01632.03674-.02039.08165-.04486.15105-.0367.01633 0 .03674.00407.05716.01223.0939-.02447.22454.00408.33885.02039.05716.00815.11839.02039.17555.02039.06124.00407.12656-.00408.1878-.01224.08573-.00815.17147-.01631.2572-.01223.07757.00408.15922.01631.24087.02854.13064.02039.26129.02039.38785 0 .07757-.01223.15922-.02446.23679-.02854.08165 0 .17146.00408.2572.01223.06124.00408.12656.00816.1878.00816.05715-.00408.11431-.01223.17555-.02447.08981-.01631.18371-.02854.27353-.02854h.02449c.04491 0 .08982.01631.13065.04078.14289-.00408.2327-.01224.31844-.02039.11839-.01224.23679-.02039.47357-.02039.23679 0 .35519.01223.47358.02039.10615.00815.2123.02039.42867.02039.2123 0 .32252-.00816.42867-.02039.1184-.01224.23679-.02039.47358-.02039.08573 0 .16738.01223.25312.02854.05715.00816.11023.02039.1633.02039.05716 0 .11431-.00815.17147-.01631.08165-.01223.1633-.02039.24495-.01631.07757 0 .15514.01223.23679.02447.03266.00407.06941.01223.10207.01631.03266-.02039.07348-.0367.12247-.04078.0245 0 .04899 0 .06941.00408.02041-.00816.04491-.01631.0694-.01631.21229-.00408.29803.00815.38784.02038.07349.00816.14289.02039.28987.02039.14697 0 .21637-.00815.28986-.02039.08982-.01223.17555-.02446.35522-.02446.1837 0 .2694.01223.3633.02039.0694.00815.1429.01631.2858.02039.0204 0 .0367.00407.0571.00815.0327-.01223.0899-.02039.1593-.00408.0571.01224.1061.0367.1388.05709.102-.02854.2204-.01631.2898 0 .0368-.02039.0899-.04485.1552-.05709.0694-.01223.1265-.00407.1674 0 .0204-.00407.0408 0 .0571 0 .6777-.00407 1.0329-.01223 1.3718-.02039.3756-.00815.7348-.02038 1.486-.02038.7185 0 1.0737.01223 1.433.02038.3552.01224.7104.02039 1.4207.02039.69 0 1.0452-.01223 1.3922-.02039.3674-.01223.7267-.02446 1.4615-.02038.0164 0 .0286 0 .045.00407.0653.01224.1183.04078.1551.06117.0408-.00816.1021-.02039.1674-.01631s.1184.02854.1551.04078c.0245-.01224.0817-.0367.147-.04078s.1265.00815.1633.01631c.0408-.02039.0898-.04893.1592-.06117.1715-.00815.2409.00816.3021.02039.0408.00816.0735.01631.1429.01631.0735 0 .1062-.00815.1511-.01631.0571-.01223.1265-.02446.2531-.02446.1306 0 .1919.01223.2531.02446.0367.00816.0776.01631.1551.01631 3.8009.15904 7.6794.15088 11.1046.14273 3.707-.00816 7.4017-.02039 11.1169-.04078l.6205-.00408c1.3064-.00816 2.6333-.01631 3.9683-.01631 2.0535 0 4.1315.01631 6.2055.07748-.0123-.04894-.0245-.10195-.0368-.15088-.0775-.26098-.1429-.54234-.2245-.81963zm-44.9695-2.44666c-.2409.15495-.73078.17126-1.08189.0367l-.63279-.26914-.15106.1468c-.3756.03263-.40826-.07747-.06532-.24466l.22046.09379 1.04922-1.019447h.24087c.30211.326222.63281 1.121387.42051 1.255957zm.9757 1.26818c-.0245-.34253-.0449-.55457-.0857-1.101.5307.21613.1347.87672.0857 1.101zm3.7682.57089c-.0571 0-.1428.02447-.2327.06117.049.13048.0898.22427.1143.26505.0123.00816.0245.01223.0245.02447 0 .02039-.0081.00408-.0245-.02447-.053-.0367-.2082-.05301-.4-.0367-.1633.01223.0653-.14272.2857-.22835-.004-.01224-.0081-.02447-.0163-.0367-.0857-.23651.4573-.01631.249-.02447zm1.2942 1.01129c-.2368-.08564-.396-.20389-.3552-.26098.0409-.05709.2327.01631.4287.15903s.1633.18758-.0735.10195zm28.8597-2.98901c-.298 0-.5552-.13456-.5675-.2936-.0122-.15903.196-.68914.4124-.574963.2163.118256.4531.872643.1551.868563z" fill="#aba187"/><path d="m55.723 7.13466c0-.00815 0-.01631 0-.02447-.0123-.02854-.0245-.06116-.0286-.09786 0-.01224 0-.02039 0-.03262-.0082-.01632-.0123-.03263-.0164-.04894-.004-.00815-.0081-.02039-.0122-.02854-.0163 0-.0286-.00408-.0408-.00408-.0245-.00408-.049-.00816-.0735-.01631-.0041 0-.0123.00408-.0163.00408-.045.02039-.098.04893-.1674.05301-.0531.00408-.1062-.00816-.1429-.02039-.0408.02039-.0858.0367-.1388.04485-.0204 0-.0368 0-.0572 0-.0571.0367-.1347.07748-.2409.13049-.1673.08156-.4041.08564-.5878.08156-.147.04893-.2613.0734-.2817.0367-.0286-.04893.102-.04078.2817-.0367.1796-.05709.4123-.15088.5919-.2202-.0408-.00408-.0775-.00816-.1102-.01223-.0776-.00816-.1551-.02039-.3062-.02039-.1551 0-.2327.00815-.3103.02039-.0939.01223-.1878.02446-.3715.02446-.1878 0-.2776-.01223-.3715-.02039-.0694-.00815-.1347-.01631-.2572-.02039-.0367.02039-.0939.04078-.1551.0367-.0286 0-.0572-.00815-.0817-.01631-.049.01631-.1184.01224-.1633 0-.0204.00816-.0449.01224-.0694.01224.2123.01223.347.06932.3225.1468-.0367.1101-.3347.13456-.6654.05301-.3307-.07748-.2981-.16719.0653-.19981.0776-.00816.147-.00816.2164-.00408-.0409-.00408-.0817-.01631-.1062-.03262-.2082 0-.3184.01223-.4327.02039-.1307.01223-.2654.02038-.5308.02038-.2653 0-.396-.01223-.5266-.02038-.1225-.00816-.245-.02039-.4858-.02039-.2327 0-.3552.01223-.4695.02039-.1348.01223-.2736.02446-.5471.02038-.1021-.01223-.1796-.0367-.2531-.06116-.0408-.01224-.0817-.02855-.1225-.0367-.0449-.00816-.0939-.00408-.1388-.00408-.0653.00408-.1347.00408-.2001-.00408-.0612-.00815-.1183-.02039-.1796-.0367-.0408-.00815-.0776-.02039-.1102-.02446-.0449.02038-.0776.04485-.1674.0367-.0531 0-.098-.01631-.1347-.02855-.0776.02855-.1919.02447-.298.01223-.0572-.00407-.1103-.01223-.147-.00815-.0327.00408-.0776.02039-.1266.0367-.0653.02447-.1347.04485-.2.05709-.0776.01223-.1552.01223-.2327.01223-.0409 0-.0858-.00408-.1266 0-.0571.00408-.0735.00816-.098.01631-.0571.01631-.1143.02855-.2123.02855s-.1551-.01631-.2123-.03263c-.053-.01631-.0816-.01631-.1347 0-.0449.01224-.1102.03263-.2204.03263-.0858-.00408-.1511-.02447-.2042-.04078-.0326-.00816-.0653-.02039-.0857-.02039-.0163 0-.0531.00408-.0857.00816-.0531.00815-.1144.01631-.1878.01631-.0613-.00408-.1225-.01631-.1797-.03263-.0326-.00815-.0653-.01631-.0857-.01631-.0082 0-.0327.00816-.0531.01224-.0449.01223-.102.02854-.1674.03262-.0653.00408-.1265-.00816-.1755-.01631-.0204-.00408-.0449-.00816-.0572-.00816-.0081 0-.0367.01224-.053.01631-.049.01631-.1062.0367-.1756.04486-.1388.00408-.2082-.01223-.2613-.02447-.0776-.02039-.1674-.01631-.2409 0-.053.01224-.1183.02855-.2367.02855s-.1838-.01224-.2368-.02447c-.0327-.00816-.0654-.01223-.1266-.01631-.0653-.00816-.098-.00408-.1347-.00408-.0694 0-.1388.00408-.2082-.00815-.0653-.01224-.1266-.03263-.1878-.05302-.0409-.01631-.0776-.02854-.1062-.03262-.0245-.00408-.0694.00408-.1184.00816-.1306.01631-.2572.01223-.3878 0-.0735-.00816-.1429-.01631-.2164-.00816-.0612.00408-.1265.02039-.1878.03262-.0857.02039-.1755.0367-.2613.04078-.098.00816-.1959 0-.298-.01223-.1225-.01223-.249-.00816-.3715.00815-.0817.01224-.1633.02447-.249.02855-.0858 0-.1715-.00816-.2613-.01631-.0654-.00816-.1307-.01631-.1919-.01224-.0613 0-.1225.01224-.1837.02039-.1552.02447-.3348.02855-.4246-.00407-.0449.02038-.0939.0367-.1511.04077-.0735.00408-.1347-.01631-.1714-.02854-.3389-.00408-.5144.00815-.6859.01631-.1796.00816-.3593.02039-.7226.02039-.3593 0-.5389-.01223-.7186-.02039-.1714-.00816-.3429-.02039-.6858-.02039-.3307 0-.5022.01223-.6696.02039-.1878.01223-.3633.02039-.7348.02039-.1062-.01223-.1674-.0367-.2123-.05709-.0204-.00816-.049-.02039-.0613-.02447-.0081.00408-.0408.00408-.0653.00408-.049.00408-.1061.01223-.1755.00816-.0613-.00408-.1184-.02039-.1593-.0367-.0204-.00816-.0489-.01631-.0612-.01631-.0653 0-.1266.00815-.1919.02038-.0857.01224-.1714.02447-.2531.02447-.0939 0-.1715-.00815-.2613-.02039-.0653-.00815-.1265-.01223-.1919-.01631-.0612 0-.1265.01223-.1878.02039-.1469.02039-.2939.03262-.4409.00408-.0326-.00816-.0735-.01224-.0898-.01224s-.0531.01224-.0816.02447c-.049.01631-.1144.0367-.1838.04486-.0734.00815-.1388 0-.1959-.00408-.0327-.00408-.0653-.00816-.0858-.00408-.2694.00408-.396.01223-.5184.02039-.1388.01223-.2736.02039-.5512.02039-.2694 0-.4042-.01223-.543-.02039-.1265-.00816-.249-.02039-.5021-.02039-.2491 0-.3756.00816-.5022.02039-.1347.01223-.2694.02039-.5389.02039-.0122 0-.0245 0-.0367-.00408-.0164 0-.0286 0-.0408 0-.0082 0-.0205 0-.0286-.00408-.0123 0-.0286.00408-.0368.00408-.0122 0-.0245 0-.0367-.00408-.0204.00408-.0368.00408-.0531.00408-.1551 0-.2327-.01223-.3103-.02447-.0571-.00815-.1184-.01631-.2327-.01631-.1184 0-.1755.00816-.2368.01631-.0775.01224-.1551.02447-.3102.02447-.1593 0-.2327-.01223-.3144-.02447-.0571-.00815-.1184-.01631-.2327-.02038-.0572-.00408-.0939 0-.1306.00407-.0613.00408-.1307.01224-.2123.00408-.0654-.00815-.1307-.02447-.1919-.04485-.0408-.01224-.0817-.02447-.1062-.02855-.0285-.00408-.0694.00408-.1184.01223-.1347.02039-.2694.01632-.4041.00408-.0694-.00815-.1429-.01631-.2123-.01223-.0613.00408-.1266.01631-.1878.03262-.0858.02039-.1715.0367-.2613.04078-.098.00408-.196-.00408-.294-.01223-.0571-.00408-.1183-.01224-.1755-.01224-.0082 0-.0204.00816-.0327.01224-.0449.01223-.102.03262-.1714.03262-.0735-.00408-.1307-.01224-.1756-.02447-.0122-.00408-.0286-.00815-.0408-.00815 0 0-.0123.00815-.0286.01223-.0449.01631-.102.03262-.1755.0367-.4001 0-.5879-.00816-.7839-.02039-.1837-.00816-.3674-.02039-.7349-.02039-.3674 0-.5552.00816-.7389.02039-.1919.01223-.3838.02039-.7675.02039-.3879 0-.5797-.00816-.7757-.02039-.1796-.00816-.3674-.02039-.7308-.02039-.0612-.00408-.1061.00408-.1551.01223-.0776.00816-.1511.02039-.2286.01224-.0776-.00408-.1511-.01631-.2287-.03262-.049-.00816-.098-.02039-.1469-.02447-.049 0-.098.00408-.147.01223-.0776.00816-.1552.01631-.2327.01224-.0817-.00816-.1429-.02855-.1878-.04486-.0204-.00816-.0531-.01631-.0613-.02039-.004 0-.0408.00408-.0653.00816-.049.00815-.1102.02039-.1796.01631-.0653-.00408-.1225-.02039-.1715-.03262-.0367.01631-.0735.02854-.1184.02446-.0163 0-.0286-.00408-.0449-.00815-.0163.00407-.0326.00407-.0531.00407-.0979-.00407-.1878-.02038-.2776-.0367-.0694-.01223-.1347-.02446-.2041-.02854s-.1388 0-.2082.00816c-.0898.00815-.1796.01223-.2735.00815-.0899-.00408-.1838-.02039-.2736-.0367-.0367-.00815-.0775-.01631-.1143-.02039-.0653.02855-.1265.02447-.1592.01631-.0204.00408-.0368.00408-.049.00408-.0041 0-.0082 0-.0122 0v.12233c0 .19982.004.38332.0285.56274.0204.13049.0531.2569.0817.38331.0326.13456.0653.26505.0857.39962.0327.2202.0368.43632.0408.64429l.0041.18757c0 .04486.0041.08564.0041.12234.0041.09378.0123.19981-.0082.31806-.0204.09787-.0571.18758-.0939.26098-.0204.04078-.0367.08156-.053.12641-.0123.04486-.0204.08971-.0286.13459-.0123.0611-.0245.1264-.0408.1876.004.0652.004.1304 0 .1998 0 .0571-.0041.1101 0 .1631.004.0571.0204.1101.0326.1631.0204.0856.0409.1753.0449.261.0041.053 0 .1101 0 .1672.0572-.0082.1184-.0164.1756-.0204.0857-.0041.1715 0 .2572.004.0653.0041.1265.0082.1919.0041.0571-.0041.1143-.0163.1674-.0244.1673-.0286.3755-.0367.5756-.0041.0612.0081.1184.0204.1796.0204.0694.004.1307-.0041.196-.0123.0857-.0081.1755-.0163.2613-.0122.0816.0041.1633.0163.2408.0285.1348.0204.2654.0204.4001 0 .0817-.0122.1593-.0244.2409-.0285.0857 0 .1715.0041.2572.0122.0653.0082.1307.0123.1919.0082s.1225-.0122.1796-.0245c.1511-.0244.3307-.0408.4246 0 .0408-.0122.0776-.0285.1388-.0244.0735.004.1347.0326.1674.0489.3511.0326.69.0612 1.0288.0897.3797.0326.7594.0612 1.1391.1019.1959.0204.3878.0408.5838.0653.5225.0612 1.0655.1223 1.5922.1386.7879.0286 1.5677-.0448 2.1596-.1141.7921-.1142 1.5637-.1632 2.3108-.2162l.8083-.0571c.7308-.053 1.4861-.106 2.2414-.1182.498-.0082.9879 0 1.5064.0122.3838.0082.7757.0163 1.1758.0163 2.3924.2814 4.8338.3181 6.9404.3303 2.0453.0123 4.254.0041 6.9444-.0326h.1552c2.1025-.0285 4.2744-.0571 6.3769.0489.0123-.0081.0245-.0122.0368-.0163.0612-.0285.1224-.0611.1878-.1019l.0163-.1305c0-.0082 0-.0122.0041-.0204-.0735-.212-.0613-.4526-.0531-.6524l.0041-.1101c0-.0123.0041-.0286.0041-.0449-.0041-.053-.0082-.1101-.0082-.1672 0-.37513-.0082-.56271-.0204-.75029-.0082-.19573-.0204-.38739-.0204-.77478 0-.39554.0081-.59127.0204-.787.0204-.17127.0327-.35885.0327-.72177zm-35.5592 3.04204.4327.1712c-.1469-.0244-.2939-.0774-.4327-.1712zm.8206.3262c-.2123-.0856-.2409-.1672-.0613-.1876.1797-.0163.4532-.1223.4532.0408-.0041.1631-.1796.2284-.3919.1468zm.3919-.4445.0041-.473c.0816.1835.0694.34661-.0041.473zm-.1184-2.02663c.4083-.13049.3756-.51788.8165-.26098zm3.5723.99905c-.1103-.08563-.1878-.23651-.1919-.50564zm.7389.68507c-.1878-.0367-.4736.2569-.3552.27321.1184.0163.0245.0449-.2041.0652-.2286.0204-.8696-.31802-1.0043-.55046-.1347-.23243.4123-.38738.6042-.29767s.3225.08971.2858-.00408c-.0368-.09379.4981.24467.6818.36292.1837.12233.1796.18758-.0082.15088zm2.5679 1.29261c-.2531-.004-1.2411.1265-1.3064-.1345s-.2245-.261-.2817-.3629c-.0571-.102.1796-.0531.5226.1101l1.037-.0857c.2694.261.2817.4771.0285.473zm6.4872-1.62699c-.1102.0367-.2857-.01223-.3878-.11418-.1021-.09786-.0082-.13048.2041-.06524.2164.06524.2981.14272.1837.17942zm9.786-1.75752c-.0041-.05301-.0041-.09786-.0041-.09786s.0041.09786.0081.13456c0 .03262 0 .01631-.004-.0367z" fill="#aba187"/><path d="m55.8373 21.1377c-.1103-.2406-.1103-.526-.1062-.7748 0-.0774 0-.1549-.0041-.2242-.004-.0571.0041-.1101.0245-.1591-.0204-.1305-.0285-.265-.0285-.3955 0-.628-.0082-.9461-.0205-1.26-.0122-.3181-.0204-.6362-.0204-1.2764 0-.6361.0082-.9583.0204-1.2763.0082-.314.0205-.628.0205-1.2601v-.1794c-.0205-.0408-.0449-.1019-.0449-.1753 0-.0693.0163-.1224.0285-.1631 0-.0163.0041-.0327.0082-.053-.0123-.049-.0204-.0979-.0163-.1591.004-.053.0204-.0938.0326-.1264-.0163-.0367-.0326-.0734-.0408-.1182-.0082-.0408-.0122-.0857-.0204-.1265-.0082-.053-.0123-.1101-.0245-.1345-.0163-.0326-.0613-.0693-.1062-.106-.0245-.0204-.0489-.0408-.0734-.0653s-.049-.0448-.0735-.0693-.049-.0489-.0735-.0693c-.0041 0-.0041 0-.0082 0-.0571 0-.1143-.0245-.1592-.0612-.0735-.0041-.1266 0-.1878-.0082-.0449-.0081-.0939-.0203-.1388-.0326-.0368-.0081-.0776-.0244-.098-.0204-.0204 0-.0571.0163-.0939.0286-.049.0163-.098.0326-.147.0448-.0326.0082-.0612.0082-.0898.0041-.0245.0122-.049.0204-.0816.0286-.0735.0122-.1307-.0041-.1715-.0245-2.1229 0-3.2089.0122-4.2785.0204-1.1146.0081-2.2128.0204-4.4459.0204-2.1924 0-3.2906-.0123-4.3847-.0204-1.0942-.0123-2.1924-.0204-4.3806-.0204-2.1515 0-3.2457.0122-4.3235.0204-1.1145.0122-2.2127.0204-4.4418.0204-.7063-.0041-1.4085-.0204-2.1148-.0367-.5838-.0123-1.1717-.0286-1.7555-.0327-.5593-.0081-1.1186-.004-1.6779-.004-.7308 0-1.4616 0-2.1924-.0123-.7593-.0163-1.5227-.0448-2.2862-.0774-.494-.0204-.988-.0408-1.482-.0571-.0653.0367-.1306.0326-.1592.0326-.0041 0-.0081 0-.0122-.0041-.0164.1468-.0327.2814-.0531.4119-.0286.2079-.0572.4037-.0653.5953-.0164.3466.0204.681.0571 1.0072.0409.3793.0858.7177.2287.9746.0204.0367.0285.0734.0326.1142 0 .0204.0082.053.0163.0856.0164.0612.0286.1224.0327.1835.0041.0571-.0041.1142-.0082.1713-.004.0326-.0081.0734-.0081.0897.0041.0204.0163.053.0367.0897.0082.0041.0164.0041.0245.0082.0898.0285.1756.0571.2572.0693.0653.0081.1307.0041.196.0041.0898-.0041.1796-.0041.2694.004.1348.0164.2572.0571.3675.0938.0204.0082.0367.0123.0571.0204.0408-.0122.0939-.0163.1511.0041.0245.0082.0449.0163.0653.0285.0245 0 .049.0041.0735.0123.1429.0611.2613.1182.3756.1712.2082.0979.4082.1917.6124.2692.1959.0734.4001.1264.6123.1794.1348.0367.2695.0734.4042.1101.1429.0408.2817.0897.4205.1386.196.0653.3879.1346.5879.1835 3.5437 1.1663 7.3935 2.1409 11.4598 2.8993 4.0744.7626 8.0141 1.2438 11.717 1.4273 3.7518.1875 7.6956.0978 11.7169-.261.0082-.0082.0204-.0163.0286-.0245 0-.0734 0-.1468.0041-.2161.0041-.1509.0082-.2936-.0082-.42-.0163-.0245-.0245-.0449-.0326-.0612z" fill="#aba187"/><path d="m54.8453 44.5727c-.0776.0081-.1388-.0164-.1756-.0327-.2123.0041-.3184.0123-.4205.0204-.1225.0123-.2449.0204-.4899.0204s-.3674-.0122-.4858-.0204c-.1102-.0081-.2205-.0204-.4409-.0204-.2123 0-.3226.0123-.4287.0204-.1225.0123-.249.0245-.5022.0204-.102-.0122-.1755-.0367-.249-.0612-.0408-.0122-.0776-.0285-.1184-.0367-.0449-.0081-.0898-.004-.1347-.004-.0653.004-.1307.004-.196-.0041-.0571-.0082-.1184-.0204-.1755-.0367-.1511-.0408-.2327-.0204-.3348-.0082-.0898.0123-.196.0204-.2695.0204-.0898 0-.1796-.0122-.2694-.0244-.0694-.0082-.1307-.0082-.2082-.0204-.0653 0-.1347.0081-.2001.0163-.1469.0204-.2898.0244-.4368.0081-.0612-.0081-.1143-.0122-.1592-.0081s-.0898.0204-.1347.0367c-.0694.0244-.1389.0448-.2083.0571-.0775.0122-.1592.0122-.2408.0081-.0449 0-.0898-.0041-.1348 0-.0612.0041-.0775.0082-.1061.0163-.0449.0123-.1061.0286-.2164.0286-.098 0-.1592-.0123-.2164-.0286-.053-.0163-.0939-.0163-.1551 0-.0571.0163-.1184.0367-.2204.0286-.0858-.0041-.1511-.0245-.2083-.0408-.0367-.0082-.0694-.0204-.0939-.0204-.0163 0-.0571.0041-.0939.0082-.0653.0081-.1306.0163-.1918.0163-.0613-.0041-.1225-.0163-.1838-.0326-.053-.0123-.0898-.0204-.1551-.0041-.0449.0122-.1061.0285-.1715.0326-.0653.0041-.1306-.0082-.1796-.0163-.0204-.0041-.0531-.0082-.0653-.0082-.0082 0-.0408.0123-.0613.0163-.0489.0164-.1102.0367-.1796.0449-.1429 0-.2123-.0122-.2694-.0245-.0409-.0081-.0654-.0163-.1307-.0163s-.0939.0041-.1347.0163c-.0531.0123-.1184.0286-.2409.0286s-.1878-.0123-.2449-.0245c-.0327-.0081-.0694-.0163-.1388-.0163-.0654-.0082-.1021-.0041-.1429-.0041-.0735.0041-.1429.0041-.2164-.0081-.0653-.0123-.1266-.0327-.1919-.053-.0449-.0164-.0857-.0286-.1143-.0327-.0327-.004-.0776 0-.1266.0082-.1224.0163-.2449.0122-.3715-.0041-.049-.0081-.102-.0163-.151-.0122s-.0939.0163-.1388.0285c-.0735.0163-.1429.0326-.2164.0367-.0776.0041-.1551 0-.2327-.0081-.0327-.0041-.0653-.0082-.098-.0082-.0776.0326-.1429.0204-.1919.0041-.0041 0-.0081 0-.0122 0-.0368 0-.0735-.0082-.1062-.0286-.0204-.004-.0408-.0081-.0612-.0163-.0123-.004-.0204-.0122-.0327-.0163-.0122 0-.0245-.0041-.0367-.0041-.0245-.004-.0449-.0122-.0694-.0203-.0204.0203-.0286.0326-.0408.0448-.0123.0122-.0286.0245-.045.0367v.053c0 .0163-.004.0367-.0081.049.0081.0122.0122.0285.0204.0448.0041.0163.0082.0326.0122.0489.1144 1.048.1593 2.149.2083 3.2133l.0571 1.203c.0204.4322.0408.8685.0572 1.3089.2694.0449.5634.0938.7961.0775-.4001.1142-.6043.1264-.7921.0938.0205.4934.0327.9868.0409 1.4721.0081.7421 0 1.4843-.0082 2.2142-.0041.4078-.0082.8115-.0122 1.207.5511-.0448 1.1553-.0693 1.8412-.0693.4164 0 .8655.0082 1.3554.0245.2695.0081.5389.0204.8124.0326.8615.0367 1.7556.0775 2.5884.0245 1.2533-.0734 2.3311-.3344 3.2089-.7748l.2041-.0857c.2327-.0937.4532-.1794.6369-.2976.2572-.1591.4695-.3711.6614-.575.2531-.2732.3674-.4689.3674-.6443.0776-.6443.1307-1.2682.1837-1.8758.0327-.3629.0613-.7217.098-1.0846.0368-.3711.0776-.7463.1184-1.1174.0653-.5953.1347-1.207.1837-1.8105.0449-.5913.0735-1.1907.1021-1.7738.0163-.3059.0286-.6158.0449-.9216h-.0041c-.0122.0489-.0571.0612-.1061.0653zm-8.6306 7.397c.249-.1142 1.0084.1387 1.5106.1101-.8247.2406-.8329.0449-1.5106-.1101zm6.7648-5.7007c-.2286.0122-.3266-.0897-.2204-.2284.1061-.1386.298-.1468.4164-.0203.1225.1223.0327.2365-.196.2487zm.294-1.1173c.098.0122.2082.0734.3388.208-.1592-.0408-.2613-.1142-.3388-.208zm1.1594.893c-.0735-.0775-.1959-.3344-.2776-.5668-.0816-.2324.3062-.1142.343.1794.0367.2896.004.4649-.0654.3874z" fill="#aba187"/><path d="m55.6822 27.6418c0-.4241.0122-.6402.0204-.8523.0082-.208.0204-.4159.0204-.8278 0-.4037-.0122-.6076-.0204-.8114-.0123-.2202-.0204-.4323-.0204-.8686 0-.0122 0-.0286.0041-.0408.0081-.0489.0285-.0897.0449-.1223-.0123-.0408-.0204-.0857-.0164-.1346.0041-.0408.0123-.0775.0245-.106-.0081-.0367-.0081-.0693 0-.106-.004-.0041-.0122-.0082-.0163-.0163-.0041-.0041-.0082-.0082-.0122-.0123-.0123 0-.0245 0-.0368 0-.0122 0-.0204 0-.0245 0-.049.0041-.098-.0081-.1388-.0285-.0163.0041-.0326.0041-.049.0081-.0775.0123-.1551.0204-.2286.0245-.0735 0-.1511-.0122-.2245-.0245-.098-.0163-.1919-.0163-.294 0-.0735.0123-.151.0245-.2245.0245 0 0 0 0-.0041 0-.0449 0-.0857-.0082-.1184-.0204-.0327.0163-.0735.0286-.1184.0326-.0776.0082-.1388-.0163-.1756-.0285-.4735.0041-.7103.0122-.943.0204-.2531.0081-.5022.0204-1.0084.0204-.4981 0-.7471-.0123-.9962-.0204-.2449-.0082-.4858-.0204-.9757-.0204-.4817 0-.7226.0122-.9635.0204-.2531.0122-.4981.0244-1.0084.0204-.0653-.0082-.1143-.0245-.1469-.0408-.0327.0081-.0695.0163-.1184.0163-.0654-.0041-.1144-.0245-.147-.0408-.049.0041-.098.0082-.147.0163-.0857.0123-.1715.0245-.2613.0245-.0694.0122-.1714-.0122-.2613-.0245-.0653-.0081-.1428-.0163-.1918-.0204-.0613 0-.1225.0082-.1838.0164-.0857.0122-.1673.0203-.2531.0203 0 0 0 0-.0041 0-.0449 0-.0816-.0081-.1102-.0203-.0326.0163-.0694.0285-.1143.0326-.0776.0081-.1388-.0123-.1715-.0286-.2776.0041-.4164.0123-.5511.0204-.1551.0123-.3062.0204-.6165.0204-.3062 0-.4572-.0122-.6083-.0204-.1429-.0081-.2858-.0204-.5756-.0204-.294 0-.4369.0082-.5838.0204-.1062.0082-.2123.0163-.3715.0204-.0082.0449-.0205.0856-.0327.1223-.0122.0408-.0204.0775-.0286.1183-.0081.053-.0163.1101-.0204.1631-.0082.0897-.0163.1794-.0367.2691-.0164.0653-.0368.1265-.0613.1876-.0245.0693-.049.1346-.053.1917-.0082.0652 0 .1345.004.1998.0041.0775.0082.1509.0041.2243-.0041.0815-.0163.1631-.0326.2446-.0123.0653-.0245.1264-.0245.1917 0 .0612.004.1182.0122.1794.0082.0897.0163.1794.0123.2691-.0041.0694-.0164.1387-.0245.208-.0123.0693-.0245.1386-.0205.208 0 .0693.0205.1345.0327.2039.0163.0693.0327.1427.0408.212.0082.0693.0082.1427.0082.2161v.0938c.0245.0286.0367.0571.0408.0734.0041.0122.0082.0245.0082.0367.0041.0163.0082.0286.0082.0408.0122.0938.0204.1876.0245.2814.0081.1141.0163.2242.0367.3343.0204.102.0531.2039.0857.3059.0327.0978.0653.1957.0858.2976.0245.1061.0449.2162.0612.3263.0122.0652.0204.1264.0327.1875.8614.3344 1.8167.3385 2.8006.31l.4858-.0164c.8655-.0285 1.7596-.0611 2.6088.0286.8573.0897 1.9678.3099 2.9109 1.2519.0204.0204.0367.0489.0489.0815.0205.0163.0368.0367.0531.0612.0204.0326.0368.0815.0368.1305.0245.0204.0571.0652.0734.1223.0205.0612.0205.1183.0205.159.0285.0367.0612.0816.0775.1387.0286.0938.0449.1876.0613.2854.0081.0612.0204.1224.0326.1835.0164.0571.0368.1142.0572.1672.0367.0938.0694.1917.0898.2895.0204.1142.0204.2243.0204.3222 0 .0571 0 .1101.0041.1672.0041.0448.0082.0897.0163.1386.0164.1101.0327.2365.0204.367-.0081.1101-.0408.2121-.0653.3018-.0163.0571-.0326.1101-.0408.1672-.0123.0693-.0163.1386-.0163.2079-.0041.0857-.0082.1672-.0205.2488-.0163.0938-.0408.1835-.0694.2732-.0204.0611-.0367.1223-.0489.1835-.0123.053-.0164.1101-.0205.1672-.0081.0938-.0163.2039-.0489.3099-.0368.1223-.0939.2324-.147.3262-.0041.0082-.0082.0163-.0123.0245.0082.0734-.0245.1345-.0285.1427-.0041.0041-.0041.0081-.0082.0122-.0123.0245-.0286.0489-.0449.0693-.2409.2569-.4899.5383-.7553.8604l-.0367.0449c-.245.2977-.5022.6035-.8819.8074-.3184.1713-.7144.2487-1.2452.2487-.0285 0-.053-.004-.0775-.0122-.049-.0163-.1143-.0163-.1837-.0204-.049 0-.0939-.0041-.1429-.0081-.0531-.0041-.1062-.0123-.1592-.0245-.0695-.0122-.1348-.0285-.1878-.0204-.045.0041-.1021.0204-.1593.0367-.0653.0204-.1347.0367-.2.0449-.0082 0-.0123 0-.0204 0-.0368.004-.0776 0-.1103-.0163-.004 0-.004 0-.0081 0-.0817.0203-.1715.0407-.2736.0448-.0939.0041-.1796-.0163-.2572-.0285-.0449-.0082-.0898-.0163-.1306-.0204-.0449-.0041-.0939.0041-.1429.0081-.0653.0082-.1347.0123-.1959.0123-.0735.0122-.147.0163-.2205.0204-.0531.004-.1021.004-.1551.0122-.045.0081-.0939.0204-.1389.0367-.0816.0245-.1755.0489-.2776.0571-.1061.0081-.2041-.0041-.2939-.0163-.0449-.0082-.0939-.0123-.1388-.0163-.1143-.0082-.2205-.0041-.3266-.0041-.1103 0-.2205.0041-.3307-.0041-.0857-.0041-.1715-.0163-.2613-.0245-.1266-.0163-.249-.0285-.3633-.0244-.1552.0081-.3103.053-.4736.0978l-.1062.0286c-.0816.0163-.1347.0163-.1796.0122-.0163 0-.0367-.0041-.0531 0-.0041.0041-.0204.0163-.0326.0245-.0409.0285-.0858.0611-.1307.0815-.0204.0082-.0449.0204-.0694.0245-.0041.0163-.0122.0326-.0204.0489.0041.0245.0041.053-.0041.0857-.0163.0897-.0816.1631-.1674.1875-.1959.4486-.2735.9094-.3266 1.3416-.0694.5709-.0898 1.0888-.0612 1.5781.0122.208.0286.416.049.6239.0245.2569.049.522.0571.7911.5389.0938 1.0533.1264 1.6086.0979.2327-.0123.4654-.0326.694-.053.3919-.0367.7961-.0734 1.2125-.0612.6165.0204 1.237.159 1.8984.42.5879.1142 1.1309.0489 1.78-.0448l.2531-.0367c.5349-.0775 1.086-.1591 1.6412-.1958.1307-.0081.2613-.0122.396-.0163l-.1428-.5423c.0775.106.1306.2732.1428.5423.4777-.0081.9839.0367 1.5269.2447.1102 0 .2246-.0041.347-.0408.0654-.0204.1266-.0489.1919-.0816.0817-.0367.1633-.0774.245-.1019.1102-.0367.2204-.053.3184-.0693-.0408-.0857-.0204-.208.0735-.3181.1102-.1346.3266-.1672.3429-.0081.0041-.0082.0041-.0204.0041-.0286-.0163-.0448-.0286-.0979-.0245-.159.0041-.0734.0286-.1305.0408-.1713-.0122-.0693-.0285-.1264-.0244-.1957.0367-.1917.0653-.3833.0939-.5791v-.6361c-.1756.0408-.343.0734-.4573.1101-.3225.102-.4164-.0734-.2082-.3915l.3429-.2487c.1715-.1835.245-.1019.3226.0285v.5016c.0081 0 .0122-.0041.0204-.0041v.522c.1714-1.1051.2572-2.2387.2612-3.4743 0-.7177-.0285-1.4517-.053-2.1571-.0245-.6688-.0531-1.362-.0531-2.043-.0041-1.5414.1061-2.9278.347-4.2286.0327-.4363.0164-.628-.0081-.8686-.0082-.1835-.0286-.3955-.0286-.7625zm-4.2785 14.7493c-.2899.0652-.9554-.4486-.9595-.5546-.004-.106.6696.5546.939.4363.2695-.1183.5022-.1672.5185-.1101.0164.0571-.2082.159-.498.2284zm1.5758.0856c-.1388-.0449-.2041-.2814-.147-.526.0572-.2447-.102-.4527-.3551-.469-.2532-.0163-.4246-.0734-.3797-.1264.0449-.0571-.0368-.2243-.1837-.3792-.147-.155.1633-.2936.2898-.0612.1266.2324.2572.2488.294.0326.0367-.2161.2613-.1509.498.1428l-.0449.84c.1511.3466.1674.5912.0286.5464zm1.5677.2447c-.0653-.0164-.1388-.0531-.2245-.1183z" fill="#aba187"/></g></svg>